<svg width="162" height="34" viewBox="0 0 162 64" fill="none" xmlns="http://www.w3.org/2000/svg">
<g clip-path="url(#clip0_4034_64)">
<path d="M24 57.0828C37.2548 57.0828 48 46.5836 48 33.6322C48 20.6808 37.2548 10.1816 24 10.1816C10.7452 10.1816 0 20.6808 0 33.6322C0 46.5836 10.7452 57.0828 24 57.0828Z" fill="#7CC144"/>
<path d="M13.0492 41.2468C17.9383 41.2468 21.9017 37.4057 21.9017 32.6674C21.9017 27.9291 17.9383 24.0879 13.0492 24.0879C8.16016 24.0879 4.19678 27.9291 4.19678 32.6674C4.19678 37.4057 8.16016 41.2468 13.0492 41.2468Z" fill="white" stroke="white" stroke-width="1.17096"/>
<path d="M13.246 41.8831C18.5335 41.8831 22.8198 37.7574 22.8198 32.6681C22.8198 27.5788 18.5335 23.4531 13.246 23.4531C7.95856 23.4531 3.67224 27.5788 3.67224 32.6681C3.67224 37.7574 7.95856 41.8831 13.246 41.8831Z" fill="#327130"/>
<path d="M13.1803 41.5033C18.2142 41.5033 22.2951 37.5483 22.2951 32.6696C22.2951 27.7909 18.2142 23.8359 13.1803 23.8359C8.14637 23.8359 4.06555 27.7909 4.06555 32.6696C4.06555 37.5483 8.14637 41.5033 13.1803 41.5033Z" stroke="white" stroke-opacity="0.95" stroke-width="0.936768"/>
<path d="M10.7541 33.8782C12.42 33.8782 13.7705 32.5409 13.7705 30.8912C13.7705 29.2416 12.42 27.9043 10.7541 27.9043C9.08816 27.9043 7.73767 29.2416 7.73767 30.8912C7.73767 32.5409 9.08816 33.8782 10.7541 33.8782Z" fill="white"/>
<path d="M15.6066 34.2565C16.2585 34.2565 16.7869 33.7728 16.7869 33.1761C16.7869 32.5794 16.2585 32.0957 15.6066 32.0957C14.9547 32.0957 14.4263 32.5794 14.4263 33.1761C14.4263 33.7728 14.9547 34.2565 15.6066 34.2565Z" fill="#C8E1E5"/>
<path d="M34.9507 41.2468C39.8398 41.2468 43.8032 37.4057 43.8032 32.6674C43.8032 27.9291 39.8398 24.0879 34.9507 24.0879C30.0616 24.0879 26.0983 27.9291 26.0983 32.6674C26.0983 37.4057 30.0616 41.2468 34.9507 41.2468Z" fill="white" stroke="white" stroke-width="1.17096"/>
<path d="M34.7541 41.8831C40.0415 41.8831 44.3278 37.7574 44.3278 32.6681C44.3278 27.5788 40.0415 23.4531 34.7541 23.4531C29.4666 23.4531 25.1803 27.5788 25.1803 32.6681C25.1803 37.7574 29.4666 41.8831 34.7541 41.8831Z" fill="#327130"/>
<path d="M34.8197 41.5033C39.8536 41.5033 43.9345 37.5483 43.9345 32.6696C43.9345 27.7909 39.8536 23.8359 34.8197 23.8359C29.7858 23.8359 25.705 27.7909 25.705 32.6696C25.705 37.5483 29.7858 41.5033 34.8197 41.5033Z" stroke="white" stroke-opacity="0.95" stroke-width="0.936768"/>
<path d="M32.3934 33.8782C30.7275 33.8782 29.377 32.5409 29.377 30.8912C29.377 29.2416 30.7275 27.9043 32.3934 27.9043C34.0593 27.9043 35.4098 29.2416 35.4098 30.8912C35.4098 32.5409 34.0593 33.8782 32.3934 33.8782Z" fill="white"/>
<path d="M37.2459 34.2565C36.5941 34.2565 36.0656 33.7728 36.0656 33.1761C36.0656 32.5794 36.5941 32.0957 37.2459 32.0957C37.8978 32.0957 38.4263 32.5794 38.4263 33.1761C38.4263 33.7728 37.8978 34.2565 37.2459 34.2565Z" fill="#C8E1E5"/>
<path d="M20.1968 43.0293C20.7819 47.3846 27.0719 47.8202 27.8033 43.0293" stroke="#327130" stroke-width="1.17096" stroke-linecap="round" stroke-linejoin="round"/>
<path d="M36.0656 62.0306C36.0656 63.1187 30.6929 64.0008 24.0656 64.0008C17.4381 64.0008 12.0656 63.1187 12.0656 62.0306C12.0656 60.9426 17.4381 60.0605 24.0656 60.0605C30.6929 60.0605 36.0656 60.9426 36.0656 62.0306Z" fill="#48A145" fill-opacity="0.4"/>
<path d="M27.1123 15.3742L27.8818 15.5737L31.7136 7.52586L32.5 6.14843L29.907 5.77148L27.1123 15.3742Z" fill="#B78438"/>
<path d="M31.3836 8.15202C33.7032 8.15202 35.5836 6.32712 35.5836 4.07601C35.5836 1.82489 33.7032 0 31.3836 0C29.064 0 27.1836 1.82489 27.1836 4.07601C27.1836 6.32712 29.064 8.15202 31.3836 8.15202Z" fill="#D55F31"/>
<path d="M20.5878 15.3742L19.8183 15.5737L15.9863 7.52586L15.2002 6.14843L17.7929 5.77148L20.5878 15.3742Z" fill="#B78438"/>
<path d="M16.0837 8.15202C18.4033 8.15202 20.2837 6.32712 20.2837 4.07601C20.2837 1.82489 18.4033 0 16.0837 0C13.7641 0 11.8837 1.82489 11.8837 4.07601C11.8837 6.32712 13.7641 8.15202 16.0837 8.15202Z" fill="#D55F31"/>
<path fill-rule="evenodd" clip-rule="evenodd" d="M81.3603 21.939C81.8397 21.0101 82.4825 20.5456 83.2887 20.5456C83.8989 20.5456 84.3892 20.7401 84.7596 21.1289C85.1301 21.4961 85.3153 21.993 85.3153 22.6194V41.8018C85.3153 42.4067 85.141 42.8819 84.7923 43.2275C84.4437 43.5732 83.9861 43.746 83.4195 43.746C82.8529 43.746 82.4062 43.5732 82.0794 43.2275C81.7525 42.8819 81.5891 42.4067 81.5891 41.8018V28.4519L76.0324 38.8856C75.7709 39.3608 75.4876 39.7172 75.1825 39.9549C74.8775 40.1709 74.5179 40.2789 74.1039 40.2789C73.6899 40.2789 73.3303 40.1709 73.0252 39.9549C72.7202 39.7388 72.4369 39.3824 72.1754 38.8856L66.586 28.6139V41.8018C66.586 42.3851 66.4117 42.8603 66.0631 43.2275C65.7362 43.5732 65.2895 43.746 64.7229 43.746C64.1564 43.746 63.7097 43.5732 63.3828 43.2275C63.0559 42.8819 62.8925 42.4067 62.8925 41.8018V22.6194C62.8925 21.993 63.0668 21.4961 63.4155 21.1289C63.7859 20.7401 64.2762 20.5456 64.8864 20.5456C65.7362 20.5456 66.4008 21.0101 66.8802 21.939L74.1366 35.6453L81.3603 21.939ZM74.1281 26.6147L77.6079 20.0122C78.5538 18.1912 80.4076 16.3564 83.2887 16.3564C84.8769 16.3564 86.5193 16.9003 87.7905 18.2095C89.08 19.513 89.5412 21.143 89.5412 22.6194V25.4842C89.8895 25.2213 90.256 24.9765 90.6402 24.7508L90.6548 24.7422L90.6694 24.7338C92.5672 23.6392 94.6625 23.1286 96.8477 23.1286C98.921 23.1286 100.942 23.5862 102.759 24.6523C103.277 24.9565 103.761 25.2977 104.209 25.6732C104.45 25.3409 104.737 25.023 105.075 24.7274L105.12 24.6883L105.166 24.6504C106.402 23.6293 107.87 23.1934 109.309 23.1934C110.31 23.1934 111.375 23.4069 112.362 23.9416C113.356 23.5422 114.405 23.3074 115.492 23.2356L115.929 23.2047C117.174 23.1122 118.734 23.3273 120.096 24.3698C120.901 24.043 121.745 23.7878 122.612 23.5909L122.621 23.5888L122.63 23.5868C123.981 23.2861 125.338 23.1286 126.694 23.1286C128.942 23.1286 131.254 23.5671 133.19 24.8388V22.4574C133.19 20.9879 133.656 19.2198 135.176 17.8905L135.221 17.8513L135.267 17.8134C136.532 16.7681 138.025 16.3564 139.443 16.3564C140.861 16.3564 142.354 16.7681 143.619 17.8134C145.2 19.1192 145.728 20.9104 145.728 22.4574V24.8285C146.796 23.8616 148.204 23.2258 149.837 23.2258C150.022 23.2258 150.205 23.2339 150.385 23.2498C150.343 22.9446 150.322 22.6365 150.322 22.3278C150.322 20.6441 150.941 18.9382 152.375 17.6586C153.775 16.4092 155.467 16 156.967 16C158.469 16 160.118 16.4214 161.488 17.6248C161.536 17.6663 161.583 17.7084 161.63 17.7509C162.843 16.7665 164.291 16.3564 165.691 16.3564C167.21 16.3564 168.894 16.8317 170.216 18.166C171.534 19.4492 172.042 21.0884 172.042 22.6194V35.9277H176.17C176.167 35.8122 176.166 35.6965 176.166 35.5805C176.166 33.3907 176.612 31.277 177.619 29.3463C178.621 27.4257 180.078 25.8588 181.964 24.7508L181.978 24.7422L181.993 24.7338C183.891 23.6392 185.986 23.1286 188.171 23.1286C190.245 23.1286 192.266 23.5862 194.083 24.6523C194.811 25.0798 195.471 25.5806 196.06 26.1469C196.593 25.6331 197.169 25.2552 197.681 24.9757L197.691 24.9701L197.702 24.9646C198.87 24.3358 200.151 23.8943 201.487 23.5909L201.496 23.5888L201.505 23.5868C202.856 23.2861 204.213 23.1286 205.569 23.1286C208.262 23.1286 211.047 23.7581 213.168 25.6956C213.413 25.3552 213.705 25.0297 214.051 24.7274L214.096 24.6883L214.141 24.6504C215.377 23.6293 216.845 23.1934 218.285 23.1934C219.285 23.1934 220.351 23.4069 221.337 23.9416C222.331 23.5422 223.381 23.3074 224.467 23.2356C224.472 23.2353 224.477 23.235 224.482 23.2347L224.89 23.2057C224.895 23.2054 224.9 23.205 224.904 23.2047C225.858 23.1338 226.997 23.2435 228.09 23.7673C229.011 23.3517 229.975 23.1934 230.863 23.1934C231.866 23.1934 232.908 23.4132 233.864 23.9291C235.211 23.3781 236.637 23.1286 238.087 23.1286C240.8 23.1286 243.587 23.9171 245.573 26.2064C247.441 28.3604 248 31.1576 248 33.8308V41.8018C248 43.296 247.512 44.9479 246.161 46.2349C244.82 47.5351 243.154 47.9352 241.748 47.9352C240.313 47.9352 238.681 47.5219 237.348 46.2781C236.911 45.8704 236.562 45.4249 236.289 44.9587C236.016 45.4249 235.667 45.8704 235.23 46.2781C233.897 47.5219 232.265 47.9352 230.83 47.9352C229.395 47.9352 227.764 47.5219 226.43 46.2781L226.384 46.2346L226.339 46.1898C225.143 45.0049 224.669 43.5469 224.59 42.2158C224.502 43.6594 223.944 45.2035 222.596 46.391L222.546 46.4354L222.494 46.4782C221.228 47.5236 219.736 47.9352 218.318 47.9352C216.927 47.9352 215.464 47.5392 214.214 46.5376C212.943 47.5739 211.454 47.9028 210.177 47.9028C209.25 47.9028 208.309 47.7163 207.433 47.3032C206.249 47.7857 204.997 48 203.738 48C202.078 48 200.452 47.6596 198.939 46.9097C198.193 46.5399 197.502 46.0862 196.88 45.5479C196.602 45.7562 196.319 45.9376 196.043 46.0932L196.031 46.1L196.018 46.1068C194.946 46.7007 193.79 47.1536 192.576 47.4894L192.532 47.5016L192.487 47.5129C191.254 47.8256 190.008 48 188.76 48C186.13 48 183.636 47.407 181.505 46.043C181.43 46.1171 181.351 46.1902 181.269 46.2619C179.864 47.4926 178.186 47.7408 177.001 47.7408H165.593C164.264 47.7408 162.702 47.3834 161.404 46.2465C161.352 46.2952 161.299 46.3434 161.245 46.391L161.195 46.4354L161.143 46.4782C159.878 47.5236 158.385 47.9352 156.967 47.9352C155.83 47.9352 154.646 47.6708 153.569 47.0275C152.69 47.5749 151.648 47.9028 150.491 47.9028C148.754 47.9028 147.324 47.1689 146.287 46.2108L144.895 44.9609C144.579 45.4933 144.161 45.9981 143.619 46.4458C142.354 47.4912 140.861 47.9028 139.443 47.9028C138.059 47.9028 136.605 47.511 135.36 46.5212C134.083 47.5704 132.586 47.9028 131.303 47.9028C130.375 47.9028 129.434 47.7163 128.558 47.3032C127.374 47.7857 126.122 48 124.863 48C123.203 48 121.577 47.6596 120.064 46.9097C118.573 46.1706 117.302 45.0964 116.364 43.6812C116.066 43.2329 115.815 42.7668 115.61 42.2863C115.508 43.7095 114.946 45.2229 113.62 46.391L113.57 46.4354L113.518 46.4782C112.253 47.5236 110.76 47.9352 109.342 47.9352C107.924 47.9352 106.431 47.5236 105.166 46.4782L105.068 46.3972L104.975 46.3105C104.894 46.2351 104.816 46.1584 104.741 46.0805C104.734 46.0848 104.727 46.089 104.719 46.0932L104.707 46.1L104.695 46.1068C103.623 46.7007 102.466 47.1536 101.252 47.4894L101.208 47.5016L101.164 47.5129C99.9306 47.8256 98.6838 48 97.436 48C94.1856 48 91.1423 47.0942 88.7374 44.9461C88.4887 45.3808 88.1736 45.8 87.7805 46.1898C86.5198 47.4395 84.9256 47.9352 83.4195 47.9352C81.9201 47.9352 80.27 47.4394 78.9964 46.0927C78.2199 45.2716 77.7773 44.3388 77.5538 43.4228C76.5251 44.125 75.3756 44.4404 74.2555 44.4664L74.145 44.6759L74.0348 44.4677C72.8761 44.4555 71.682 44.1354 70.6191 43.3989C70.3821 44.3502 69.914 45.2817 69.146 46.0927C69.1456 46.0931 69.1453 46.0935 69.1449 46.0938C67.8715 47.4396 66.2219 47.9352 64.7229 47.9352C63.2235 47.9352 61.5734 47.4394 60.2999 46.0927C59.0519 44.7731 58.6666 43.1651 58.6666 41.8018V22.6194C58.6666 21.1969 59.0836 19.5792 60.3382 18.2578L60.3407 18.2551L60.3432 18.2525C61.6201 16.9122 63.281 16.3564 64.8864 16.3564C67.7181 16.3564 69.631 18.0872 70.6304 20.0079L74.1281 26.6147ZM103.098 42.1419C103.235 42.0336 103.353 41.9202 103.452 41.8018C103.712 41.4911 103.843 41.1454 103.843 40.7649C103.843 40.6542 103.836 40.5488 103.823 40.4486C103.78 40.1188 103.667 39.8462 103.483 39.6308C103.372 39.4875 103.241 39.3807 103.09 39.3105C102.981 39.2598 102.861 39.2282 102.731 39.2157C102.689 39.2116 102.645 39.2096 102.6 39.2096C102.295 39.2096 101.816 39.3824 101.162 39.728C101.145 39.7356 101.128 39.7432 101.112 39.7507C101.105 39.7535 101.099 39.7563 101.093 39.7591C100.574 39.9895 100.094 40.1811 99.6533 40.334C99.5459 40.3713 99.4409 40.4062 99.3382 40.4389C99.3361 40.4396 99.3339 40.4402 99.3318 40.4409C99.3124 40.4473 99.2929 40.4536 99.2733 40.4598C99.1699 40.4923 99.0632 40.5215 98.9532 40.5474C98.5206 40.6492 98.0367 40.7001 97.5014 40.7001C97.4795 40.7001 97.4577 40.7 97.436 40.6999C96.9348 40.6958 96.4778 40.645 96.0651 40.5474C95.3738 40.3839 94.8066 40.0892 94.3635 39.6632C94.1807 39.482 94.0168 39.2756 93.872 39.044C93.745 38.8408 93.6325 38.6183 93.5348 38.3764C93.3058 37.8098 93.1571 37.1371 93.0888 36.3582H102.731C102.861 36.3582 102.98 36.3468 103.09 36.324C103.62 36.2137 103.911 35.8358 103.964 35.1904C103.97 35.1185 103.973 35.0434 103.973 34.9648C103.973 34.6602 103.962 34.3635 103.939 34.0746C103.847 32.8885 103.564 31.8352 103.091 30.9145C103.09 30.9138 103.09 30.913 103.09 30.9122C102.749 30.2494 102.327 29.6736 101.826 29.1846C101.814 29.1733 101.802 29.162 101.791 29.1508C101.436 28.8101 101.041 28.5123 100.607 28.2575C99.5632 27.6453 98.3429 27.3322 96.9457 27.3183C96.9131 27.318 96.8805 27.3178 96.8477 27.3178C95.3441 27.3178 93.9931 27.6634 92.7946 28.3547C92.486 28.536 92.1954 28.7365 91.9228 28.9564C91.9089 28.9676 91.895 28.9789 91.8812 28.9903C91.1332 29.6031 90.5225 30.3634 90.0489 31.2709C89.8979 31.5605 89.7643 31.8598 89.6481 32.169C89.6106 32.2686 89.575 32.3694 89.5412 32.4711C89.3995 32.8971 89.2897 33.341 89.2117 33.8028C89.1161 34.3686 89.0683 34.9611 89.0683 35.5805C89.0683 35.9661 89.0856 36.3394 89.12 36.7003C89.1764 37.2922 89.2791 37.8509 89.4282 38.3764C89.4633 38.5002 89.5009 38.6221 89.5412 38.7422C89.9144 39.856 90.5086 40.8111 91.3237 41.6074C91.5063 41.7858 91.6968 41.9534 91.8952 42.1101C91.9093 42.1213 91.9234 42.1323 91.9375 42.1433C93.3664 43.255 95.1992 43.8108 97.436 43.8108C97.4578 43.8108 97.4796 43.8107 97.5014 43.8106C98.3317 43.8046 99.2033 43.6859 100.116 43.4544C100.174 43.4384 100.232 43.4221 100.289 43.4055C100.301 43.4019 100.313 43.3984 100.325 43.3949C100.647 43.3005 100.957 43.1969 101.255 43.0841C101.676 42.9245 102.074 42.7464 102.448 42.5499C102.499 42.5229 102.55 42.4956 102.6 42.4679C102.61 42.4628 102.619 42.4578 102.628 42.4527C102.63 42.4517 102.631 42.4508 102.633 42.4499C102.807 42.3522 102.962 42.2495 103.098 42.1419ZM93.6122 32.169C93.4972 32.4085 93.3995 32.6681 93.3192 32.9478C93.2109 33.3245 93.1341 33.7377 93.0888 34.1872H100.476C100.466 33.8899 100.442 33.6091 100.403 33.3447C100.352 32.9968 100.276 32.6775 100.175 32.3868C100.15 32.3123 100.122 32.2397 100.093 32.169C99.9394 31.7958 99.7401 31.4749 99.4953 31.2061C99.3671 31.0609 99.2283 30.9309 99.079 30.8162C98.5175 30.3849 97.8064 30.1692 96.9457 30.1692C96.9129 30.1692 96.8802 30.1695 96.8477 30.1702C95.8603 30.1885 95.0489 30.4862 94.4137 31.0632C94.4073 31.069 94.4009 31.0748 94.3945 31.0807C94.3507 31.1212 94.3076 31.163 94.2655 31.2061C94.0067 31.4797 93.789 31.8006 93.6122 32.169ZM107.315 41.8018C107.315 42.2731 107.42 42.6648 107.63 42.9772C107.699 43.0801 107.779 43.1743 107.871 43.2599C108.263 43.584 108.754 43.746 109.342 43.746C109.93 43.746 110.421 43.584 110.813 43.2599C111.205 42.9143 111.401 42.4283 111.401 41.8018V34.9973C111.401 34.5583 111.448 34.1486 111.541 33.7679C111.682 33.1932 111.93 32.6849 112.284 32.243C112.453 32.0388 112.649 31.8579 112.871 31.7005C113.021 31.5943 113.182 31.4987 113.356 31.4138C113.759 31.2163 114.226 31.0763 114.758 30.9939C114.772 30.9917 114.786 30.9895 114.801 30.9874C114.832 30.9828 114.863 30.9784 114.895 30.9741C114.971 30.9639 115.049 30.9548 115.127 30.9469L116.108 30.8497C116.241 30.8342 116.366 30.8156 116.485 30.7938C116.491 30.7927 116.497 30.7915 116.503 30.7904C116.982 30.7002 117.339 30.558 117.573 30.3637C117.598 30.3427 117.622 30.3211 117.644 30.2989C117.928 30.018 118.069 29.586 118.069 29.0027C118.069 28.6337 117.999 28.3252 117.858 28.0774C117.84 28.0462 117.821 28.016 117.801 27.9867C117.738 27.8947 117.664 27.8121 117.579 27.739C117.417 27.6002 117.226 27.5009 117.006 27.4413C116.952 27.4267 116.897 27.4145 116.84 27.4047C116.657 27.3734 116.457 27.366 116.239 27.3826L115.781 27.415C115.775 27.4154 115.768 27.4159 115.762 27.4163C115.742 27.4177 115.721 27.4191 115.701 27.4207C115.532 27.4337 115.366 27.4532 115.202 27.4792C115.088 27.4973 114.976 27.5185 114.864 27.5428C114.838 27.5486 114.812 27.5544 114.786 27.5605C114.784 27.5609 114.782 27.5614 114.78 27.5618C114.638 27.5952 114.497 27.6337 114.359 27.6774C113.895 27.8236 113.454 28.0277 113.036 28.2899C112.644 28.5415 112.299 28.8439 112 29.1972C111.833 29.3952 111.68 29.6092 111.541 29.8392C111.418 30.0445 111.306 30.2625 111.205 30.4933V29.1972C111.205 28.7027 111.08 28.3091 110.829 28.0165C110.784 27.964 110.735 27.9147 110.682 27.8687C110.334 27.5446 109.876 27.3826 109.309 27.3826C108.743 27.3826 108.263 27.5446 107.871 27.8687C107.821 27.9125 107.774 27.959 107.731 28.0081C107.555 28.2063 107.436 28.4465 107.371 28.7289C107.363 28.766 107.355 28.8039 107.349 28.8425C107.33 28.9546 107.319 29.0728 107.316 29.1972C107.316 29.2186 107.315 29.2402 107.315 29.262V41.8018ZM115.627 35.1075L115.695 35.1007C115.672 35.1509 115.649 35.2011 115.627 35.2516V35.1075ZM133.089 42.7266C133.142 42.6091 133.183 42.4834 133.212 42.3494C133.247 42.1894 133.264 42.0177 133.264 41.8342V33.928C133.264 33.7628 133.261 33.6008 133.255 33.4419C133.244 33.1471 133.222 32.8632 133.19 32.5902C133.172 32.4355 133.151 32.2843 133.126 32.1366C132.902 30.7926 132.403 29.7372 131.629 28.9703C131.545 28.8829 131.456 28.799 131.364 28.7185C131.344 28.7009 131.324 28.6834 131.303 28.6661C130.238 27.7673 128.702 27.3178 126.694 27.3178C126.618 27.3178 126.541 27.3185 126.465 27.3198C125.566 27.3352 124.649 27.4418 123.717 27.6394C123.684 27.6462 123.652 27.653 123.62 27.6601C123.599 27.6647 123.577 27.6695 123.556 27.6742C123.111 27.7752 122.692 27.8918 122.299 28.0241C122.274 28.0323 122.25 28.0406 122.226 28.0489C121.808 28.1924 121.42 28.3538 121.061 28.533C121.032 28.5477 121.003 28.5626 120.974 28.5775C120.93 28.6002 120.886 28.6231 120.843 28.6463C120.83 28.6533 120.817 28.6604 120.805 28.6675C120.612 28.7749 120.443 28.8866 120.299 29.0027C120.132 29.1373 119.997 29.2777 119.895 29.424C119.721 29.6832 119.634 29.9964 119.634 30.3637C119.634 30.7088 119.703 31.004 119.842 31.2491C119.885 31.3261 119.936 31.3982 119.993 31.4654C120.255 31.7462 120.582 31.8866 120.974 31.8866C121.155 31.8866 121.41 31.8191 121.737 31.6842C121.883 31.6245 122.042 31.5515 122.216 31.4654C122.225 31.462 122.233 31.4586 122.242 31.4552C122.281 31.4404 122.319 31.4256 122.357 31.4111C122.362 31.409 122.368 31.4069 122.373 31.4048C122.462 31.3708 122.55 31.3378 122.637 31.3056C122.659 31.2972 122.682 31.2888 122.704 31.2806C123.091 31.1379 123.452 31.0132 123.789 30.9064C123.95 30.8552 124.106 30.8081 124.256 30.7651C124.26 30.7638 124.265 30.7625 124.27 30.7612C124.361 30.7351 124.45 30.7107 124.537 30.6877C125.19 30.4933 125.833 30.3961 126.465 30.3961C126.543 30.3961 126.619 30.3975 126.694 30.4004C127.512 30.4319 128.133 30.6361 128.557 31.0129C128.603 31.0537 128.646 31.0965 128.688 31.1413C128.791 31.249 128.883 31.3718 128.964 31.5094C128.976 31.5313 128.989 31.5535 129.001 31.5761C129.09 31.7425 129.164 31.9293 129.221 32.1366C129.323 32.5065 129.374 32.9417 129.374 33.4419V34.1872H128.557C127.809 34.1872 127.112 34.2022 126.465 34.2322C126.271 34.2412 126.082 34.2515 125.897 34.2632C125.805 34.269 125.714 34.2752 125.624 34.2817C125.584 34.2846 125.545 34.2875 125.506 34.2905C125.343 34.303 125.184 34.3166 125.028 34.3313C124.566 34.3752 124.137 34.429 123.743 34.4929C123.636 34.5102 123.531 34.5283 123.429 34.5471C123.269 34.5765 123.115 34.6078 122.968 34.6408C122.468 34.7526 122.02 34.8894 121.621 35.0514C121.388 35.1463 121.172 35.2498 120.974 35.3619C120.635 35.5531 120.347 35.7695 120.109 36.0109C120.081 36.0399 120.053 36.0692 120.026 36.0989C119.493 36.7053 119.202 37.5154 119.151 38.5291C119.146 38.6349 119.143 38.7429 119.143 38.8532C119.143 39.7821 119.394 40.6245 119.895 41.3806C120.277 41.9571 120.767 42.4395 121.365 42.8276C121.412 42.858 121.459 42.8879 121.507 42.9172C121.651 43.0042 121.8 43.086 121.954 43.1627C122.826 43.5948 123.796 43.8108 124.863 43.8108C125.063 43.8108 125.259 43.8021 125.449 43.7847C125.527 43.7776 125.604 43.769 125.681 43.759C126.393 43.6655 127.036 43.4451 127.609 43.0979C128.172 42.7662 128.629 42.3449 128.979 41.8342C128.999 41.8051 129.019 41.7757 129.038 41.746C129.039 41.7443 129.04 41.7426 129.041 41.741C129.167 41.5468 129.278 41.3403 129.374 41.1214V41.8342C129.374 42.3959 129.548 42.8495 129.897 43.1951C130.061 43.3481 130.244 43.4672 130.447 43.5525C130.701 43.6599 130.987 43.7136 131.303 43.7136C131.913 43.7136 132.392 43.5516 132.741 43.2275C132.888 43.0817 133.004 42.9147 133.089 42.7266ZM129.038 38.7556C129.091 38.6329 129.138 38.5065 129.179 38.3764C129.309 37.958 129.374 37.5013 129.374 37.0062V36.3258H128.786C128.709 36.3258 128.632 36.3259 128.557 36.3263C127.207 36.3328 126.15 36.3974 125.386 36.5202C125.305 36.5333 125.225 36.5475 125.148 36.5626C124.465 36.6968 123.967 36.9095 123.654 37.2006C123.625 37.2278 123.597 37.2559 123.57 37.2848C123.277 37.5999 123.131 38.0147 123.131 38.5291C123.131 38.6182 123.135 38.7052 123.143 38.7903C123.145 38.8114 123.147 38.8323 123.15 38.8532C123.152 38.8693 123.154 38.8854 123.156 38.9014C123.156 38.905 123.157 38.9085 123.157 38.912C123.159 38.9259 123.161 38.9397 123.163 38.9534C123.178 39.0428 123.197 39.1298 123.22 39.2146C123.294 39.48 123.413 39.7228 123.578 39.943C123.658 40.0494 123.749 40.1506 123.85 40.2465C124.149 40.5042 124.487 40.6851 124.863 40.7891C125.118 40.8594 125.39 40.8945 125.681 40.8945C125.87 40.8945 126.054 40.8837 126.231 40.8621C126.242 40.8607 126.254 40.8593 126.265 40.8578C126.658 40.8065 127.02 40.7017 127.35 40.5432C127.454 40.4933 127.555 40.4381 127.653 40.3776C127.83 40.2679 127.998 40.1407 128.155 39.9961C128.214 39.9416 128.272 39.8847 128.328 39.8253C128.502 39.6416 128.655 39.4452 128.786 39.2359C128.881 39.0827 128.966 38.9226 129.038 38.7556ZM137.416 41.8018C137.416 41.8127 137.416 41.8235 137.416 41.8342C137.418 42.0176 137.436 42.1878 137.47 42.3448C137.55 42.7105 137.717 43.0048 137.972 43.2275C138.081 43.3179 138.198 43.3957 138.323 43.4609C138.645 43.6293 139.019 43.7136 139.443 43.7136C140.031 43.7136 140.521 43.5516 140.914 43.2275C141.283 42.9228 141.478 42.4842 141.5 41.9119C141.501 41.8757 141.502 41.839 141.502 41.8018V36.261L149.151 43.1303C149.155 43.1342 149.159 43.138 149.163 43.1417C149.573 43.523 150.016 43.7136 150.491 43.7136C150.658 43.7136 150.817 43.6899 150.969 43.6426C151.251 43.5543 151.506 43.3835 151.733 43.1303C152.103 42.7415 152.288 42.2987 152.288 41.8018C152.288 41.308 152.091 40.8632 151.695 40.4674C151.676 40.4482 151.657 40.4292 151.637 40.4102C151.636 40.4096 151.635 40.4091 151.635 40.4085L145.947 35.3537L151.079 30.6229C151.09 30.612 151.101 30.6011 151.112 30.5902C151.495 30.1974 151.691 29.7655 151.7 29.2944C151.7 29.2836 151.7 29.2728 151.7 29.262C151.7 28.7651 151.515 28.3331 151.144 27.9659C151.063 27.8855 150.979 27.814 150.892 27.7512C150.58 27.5271 150.229 27.415 149.837 27.415C149.363 27.415 148.937 27.5892 148.56 27.9377C148.539 27.9573 148.518 27.9775 148.497 27.9983L141.502 34.6408V22.4574C141.502 21.8309 141.306 21.3557 140.914 21.0317C140.521 20.7077 140.031 20.5456 139.443 20.5456C138.854 20.5456 138.364 20.7077 137.972 21.0317C137.601 21.3557 137.416 21.8309 137.416 22.4574V41.8018ZM155.083 28.4582C154.991 28.6899 154.944 28.9578 154.941 29.262C154.94 29.2727 154.94 29.2835 154.94 29.2944V41.8018C154.94 42.4283 155.126 42.9143 155.496 43.2599C155.71 43.4367 155.953 43.5653 156.226 43.6456C156.453 43.7125 156.7 43.746 156.967 43.746C157.555 43.746 158.046 43.584 158.438 43.2599C158.83 42.9143 159.026 42.4283 159.026 41.8018V29.2944C159.026 28.9743 158.975 28.6937 158.873 28.4526C158.775 28.2218 158.63 28.0271 158.438 27.8687C158.046 27.5446 157.555 27.3826 156.967 27.3826C156.486 27.3826 156.071 27.4907 155.722 27.7068C155.643 27.7553 155.568 27.8093 155.496 27.8687C155.313 28.0284 155.176 28.2249 155.083 28.4582ZM177.015 44.3064C177.015 44.3065 177.01 44.3065 177.001 44.3061C177.01 44.3061 177.015 44.3063 177.015 44.3064ZM163.599 41.6074C163.599 42.2123 163.774 42.6875 164.122 43.0331C164.471 43.3788 164.961 43.5516 165.593 43.5516H177.001C177.631 43.5516 178.11 43.4185 178.436 43.1522C178.787 42.8664 178.962 42.427 178.962 41.8342C178.962 40.6893 178.308 40.1169 177.001 40.1169H167.816V22.6194C167.816 21.993 167.62 21.4961 167.227 21.1289C166.857 20.7401 166.345 20.5456 165.691 20.5456C165.059 20.5456 164.547 20.7401 164.155 21.1289C163.84 21.4413 163.659 21.8476 163.612 22.3477C163.603 22.4354 163.599 22.5259 163.599 22.6194V41.6074ZM177.015 39.362C177.015 39.3621 177.01 39.3624 177.001 39.3624C177.01 39.3619 177.015 39.3619 177.015 39.362ZM159.373 22.5881C159.382 22.5036 159.386 22.4168 159.386 22.3278C159.386 22.2953 159.385 22.2632 159.384 22.2314C159.362 21.6282 159.134 21.1418 158.699 20.7725C158.264 20.3836 157.686 20.1892 156.967 20.1892C156.226 20.1892 155.638 20.3836 155.202 20.7725C154.766 21.1613 154.548 21.6797 154.548 22.3278C154.548 22.7816 154.655 23.1772 154.869 23.5145C154.96 23.6589 155.071 23.7925 155.202 23.9155C155.638 24.3044 156.226 24.4988 156.967 24.4988C157.708 24.4988 158.296 24.3044 158.732 23.9155C158.863 23.7925 158.974 23.6589 159.065 23.5145C159.237 23.2434 159.34 22.9346 159.373 22.5881ZM192.578 43.0841C193 42.9245 193.398 42.7464 193.772 42.5499C193.823 42.5229 193.874 42.4956 193.924 42.4679C193.933 42.4628 193.943 42.4578 193.952 42.4527C193.954 42.4517 193.955 42.4508 193.957 42.4499C194.131 42.3517 194.287 42.2484 194.424 42.14C194.919 41.748 195.166 41.2896 195.166 40.7649C195.166 40.6542 195.16 40.5488 195.147 40.4486C195.104 40.1188 194.991 39.8462 194.807 39.6308C194.615 39.3839 194.365 39.2455 194.055 39.2157C194.012 39.2116 193.969 39.2096 193.924 39.2096C193.885 39.2096 193.844 39.2124 193.799 39.218C193.494 39.2563 193.057 39.4263 192.486 39.728C192.469 39.7356 192.452 39.7432 192.435 39.7507C192.429 39.7535 192.423 39.7563 192.416 39.7591C191.897 39.9895 191.418 40.1811 190.977 40.334C190.87 40.3713 190.765 40.4062 190.662 40.4389C190.66 40.4396 190.658 40.4402 190.656 40.4409C190.636 40.4473 190.617 40.4536 190.597 40.4598C190.494 40.4923 190.387 40.5215 190.277 40.5474C189.844 40.6492 189.36 40.7001 188.825 40.7001C188.803 40.7001 188.781 40.7 188.76 40.6999C188.259 40.6958 187.802 40.645 187.389 40.5474C186.698 40.3839 186.13 40.0892 185.687 39.6632C185.504 39.482 185.341 39.2756 185.196 39.044C185.069 38.8408 184.956 38.6183 184.858 38.3764C184.629 37.8098 184.481 37.1371 184.412 36.3582H194.055C194.074 36.3582 194.093 36.3579 194.112 36.3574C194.834 36.3382 195.226 35.9492 195.288 35.1904C195.294 35.1185 195.297 35.0434 195.297 34.9648C195.297 34.6602 195.286 34.3635 195.263 34.0746C195.259 34.0267 195.255 33.979 195.251 33.9315C195.241 33.8206 195.229 33.7109 195.215 33.6023C195.091 32.607 194.824 31.7111 194.414 30.9145C194.374 30.8362 194.333 30.7591 194.29 30.6833C193.973 30.1159 193.592 29.6164 193.149 29.1846C193.138 29.1733 193.126 29.162 193.114 29.1508C192.759 28.8101 192.365 28.5123 191.93 28.2575C190.887 27.6453 189.667 27.3322 188.269 27.3183C188.237 27.318 188.204 27.3178 188.171 27.3178C186.668 27.3178 185.317 27.6634 184.118 28.3547C183.81 28.536 183.519 28.7365 183.247 28.9564C183.233 28.9676 183.219 28.9789 183.205 28.9903C182.457 29.6031 181.846 30.3634 181.373 31.2709C181.222 31.5605 181.088 31.8598 180.972 32.169C180.777 32.6861 180.632 33.2308 180.535 33.8028C180.44 34.3686 180.392 34.9611 180.392 35.5805C180.392 35.9661 180.409 36.3394 180.444 36.7003C180.447 36.738 180.451 36.7756 180.455 36.8131C180.513 37.3634 180.612 37.8844 180.752 38.3764C181.113 39.6482 181.744 40.7252 182.647 41.6074C182.727 41.6851 182.808 41.7607 182.89 41.8342C182.986 41.9195 183.084 42.0019 183.183 42.0817C183.195 42.0912 183.207 42.1007 183.219 42.1101C183.233 42.1213 183.247 42.1323 183.261 42.1433C184.69 43.255 186.523 43.8108 188.76 43.8108C188.782 43.8108 188.803 43.8107 188.825 43.8106C189.655 43.8046 190.527 43.6859 191.44 43.4544C191.498 43.4384 191.555 43.4221 191.613 43.4055C191.625 43.4019 191.637 43.3984 191.649 43.3949C191.971 43.3005 192.28 43.1969 192.578 43.0841ZM184.936 32.169C184.821 32.4085 184.723 32.6681 184.643 32.9478C184.535 33.3245 184.458 33.7377 184.412 34.1872H191.8C191.79 33.8899 191.765 33.6091 191.727 33.3447C191.676 32.9969 191.6 32.6775 191.499 32.3868C191.473 32.3123 191.446 32.2397 191.417 32.169C191.263 31.7958 191.064 31.4749 190.819 31.2061C190.691 31.0609 190.552 30.9309 190.403 30.8162C189.841 30.3849 189.13 30.1692 188.269 30.1692C188.237 30.1692 188.204 30.1695 188.171 30.1702C187.184 30.1885 186.373 30.4862 185.737 31.0632C185.731 31.069 185.725 31.0749 185.718 31.0807C185.674 31.1212 185.631 31.163 185.589 31.2061C185.33 31.4797 185.113 31.8006 184.936 32.169ZM198.717 31.2491C198.76 31.3261 198.811 31.3982 198.868 31.4654C198.958 31.5625 199.057 31.6429 199.163 31.7065C199.364 31.8265 199.592 31.8866 199.849 31.8866C200.11 31.8866 200.524 31.7462 201.091 31.4654C201.099 31.462 201.108 31.4586 201.117 31.4552C201.155 31.4404 201.194 31.4256 201.232 31.4111C201.237 31.409 201.243 31.4069 201.248 31.4048C201.337 31.3708 201.425 31.3378 201.512 31.3056C201.534 31.2972 201.557 31.2888 201.579 31.2806C201.965 31.1379 202.327 31.0132 202.664 30.9064C202.825 30.8552 202.981 30.8081 203.131 30.7651C203.135 30.7638 203.14 30.7625 203.144 30.7612C203.236 30.7351 203.325 30.7107 203.411 30.6877C204.065 30.4933 204.708 30.3961 205.34 30.3961C205.418 30.3961 205.494 30.3975 205.569 30.4004C206.387 30.4319 207.008 30.6361 207.432 31.0129C207.478 31.0537 207.521 31.0965 207.563 31.1413C207.666 31.249 207.758 31.3717 207.838 31.5094C207.851 31.5313 207.864 31.5535 207.876 31.5761C207.965 31.7425 208.038 31.9293 208.096 32.1366C208.198 32.5065 208.249 32.9417 208.249 33.4419V34.1872H207.432C206.684 34.1872 205.986 34.2022 205.34 34.2322C205.146 34.2412 204.957 34.2515 204.772 34.2632C204.68 34.269 204.589 34.2752 204.499 34.2817C204.459 34.2846 204.42 34.2875 204.381 34.2905C204.218 34.303 204.058 34.3166 203.903 34.3313C203.441 34.3752 203.012 34.429 202.618 34.4929C202.511 34.5102 202.406 34.5283 202.304 34.5471C202.144 34.5765 201.99 34.6078 201.842 34.6408C201.343 34.7526 200.894 34.8894 200.496 35.0514C200.263 35.1463 200.047 35.2497 199.849 35.3618C199.724 35.4323 199.606 35.5061 199.495 35.5833C199.304 35.7158 199.134 35.8584 198.984 36.0109C198.956 36.0399 198.928 36.0692 198.901 36.0989C198.623 36.4153 198.41 36.7871 198.264 37.2144C198.129 37.606 198.05 38.0443 198.026 38.5291C198.021 38.6349 198.018 38.7429 198.018 38.8532C198.018 38.8786 198.018 38.9039 198.019 38.9291C198.028 39.5845 198.164 40.1965 198.426 40.7649C198.523 40.9762 198.638 41.1814 198.77 41.3806C198.918 41.6033 199.081 41.812 199.261 42.0067C199.547 42.3158 199.873 42.5894 200.24 42.8276C200.287 42.8581 200.334 42.8879 200.382 42.9172C200.525 43.0042 200.674 43.086 200.829 43.1627C201.701 43.5948 202.67 43.8108 203.738 43.8108C203.938 43.8108 204.134 43.8021 204.324 43.7847C204.402 43.7776 204.479 43.769 204.555 43.759C205.268 43.6655 205.911 43.4451 206.484 43.0979C207.047 42.7662 207.503 42.3449 207.854 41.8342C207.874 41.8051 207.893 41.7757 207.913 41.746C207.914 41.7443 207.915 41.7426 207.916 41.741C208.042 41.5468 208.153 41.3403 208.249 41.1214V41.8342C208.249 42.3959 208.423 42.8495 208.772 43.1951C208.936 43.3481 209.119 43.4672 209.321 43.5525C209.576 43.6599 209.862 43.7136 210.177 43.7136C210.788 43.7136 211.267 43.5516 211.616 43.2275C211.763 43.0817 211.879 42.9147 211.964 42.7266C212.017 42.6093 212.058 42.4837 212.087 42.35C212.121 42.1898 212.139 42.0179 212.139 41.8342V33.928C212.139 33.7628 212.136 33.6008 212.13 33.4419C212.118 33.1472 212.097 32.8633 212.065 32.5902C212.047 32.4355 212.026 32.2843 212.001 32.1366C211.777 30.7926 211.278 29.7372 210.504 28.9703C210.42 28.8829 210.331 28.799 210.239 28.7185C210.219 28.7009 210.199 28.6834 210.178 28.6661C209.113 27.7673 207.576 27.3178 205.569 27.3178C205.493 27.3178 205.416 27.3185 205.34 27.3198C204.44 27.3352 203.524 27.4418 202.591 27.6394C202.559 27.6462 202.527 27.653 202.495 27.6601C202.474 27.6647 202.452 27.6695 202.431 27.6742C201.986 27.7752 201.567 27.8918 201.174 28.0241C200.729 28.1737 200.316 28.3434 199.936 28.533C199.907 28.5477 199.878 28.5626 199.849 28.5775C199.805 28.6002 199.761 28.6231 199.718 28.6463C199.705 28.6533 199.692 28.6604 199.679 28.6675C199.263 28.8993 198.96 29.1515 198.77 29.424C198.681 29.5555 198.615 29.7009 198.572 29.8603C198.53 30.015 198.508 30.1828 198.508 30.3637C198.508 30.7088 198.578 31.004 198.717 31.2491ZM216.291 41.8018C216.291 41.8127 216.291 41.8235 216.291 41.8342C216.293 42.0174 216.311 42.1884 216.345 42.3472C216.425 42.7179 216.592 43.0221 216.847 43.2599C217.239 43.584 217.729 43.746 218.318 43.746C218.906 43.746 219.396 43.584 219.788 43.2599C220.181 42.9143 220.377 42.4283 220.377 41.8018V34.9973C220.377 34.5583 220.424 34.1485 220.517 33.7679C220.658 33.1931 220.905 32.6849 221.259 32.243C221.429 32.0388 221.625 31.8579 221.847 31.7005C221.996 31.5943 222.158 31.4987 222.331 31.4138C222.735 31.2163 223.202 31.0763 223.734 30.9939C223.748 30.9917 223.762 30.9896 223.776 30.9875C223.807 30.9828 223.839 30.9784 223.871 30.9741C223.947 30.9639 224.024 30.9548 224.103 30.9469L225.084 30.8497C225.217 30.8342 225.342 30.8156 225.46 30.7938C225.466 30.7927 225.473 30.7915 225.479 30.7904C226.01 30.6905 226.39 30.5267 226.62 30.2989C226.859 30.0614 226.998 29.7157 227.035 29.262C227.041 29.1792 227.045 29.0928 227.045 29.0027C227.045 28.4411 226.881 28.0199 226.555 27.739C226.228 27.4582 225.781 27.3394 225.214 27.3826L224.757 27.415C224.75 27.4154 224.744 27.4159 224.737 27.4163C224.717 27.4177 224.697 27.4191 224.677 27.4207C224.508 27.4337 224.342 27.4532 224.178 27.4792C224.064 27.4973 223.951 27.5185 223.84 27.5428C223.814 27.5486 223.788 27.5544 223.761 27.5605C223.76 27.5609 223.758 27.5614 223.756 27.5618C223.613 27.5952 223.473 27.6337 223.334 27.6774C222.871 27.8236 222.43 28.0277 222.011 28.2899C221.62 28.5415 221.275 28.8439 220.976 29.1972C220.808 29.3952 220.655 29.6092 220.517 29.8392C220.393 30.0445 220.281 30.2625 220.181 30.4933V29.1972C220.181 28.7027 220.055 28.3091 219.805 28.0165C219.76 27.964 219.711 27.9147 219.658 27.8687C219.309 27.5446 218.851 27.3826 218.285 27.3826C217.718 27.3826 217.239 27.5446 216.847 27.8687C216.797 27.9125 216.75 27.959 216.706 28.008C216.531 28.2063 216.411 28.4465 216.347 28.7289C216.338 28.7661 216.331 28.8039 216.324 28.8425C216.305 28.9546 216.295 29.0728 216.292 29.1972C216.291 29.2186 216.291 29.2402 216.291 29.262V41.8018ZM224.592 26.7057C224.621 26.6952 224.646 26.6876 224.663 26.6825ZM208.053 38.3764C208.184 37.958 208.249 37.5013 208.249 37.0062V36.3258H207.661C207.583 36.3258 207.507 36.3259 207.432 36.3263C206.082 36.3328 205.025 36.3974 204.261 36.5202C204.179 36.5333 204.1 36.5475 204.023 36.5626C203.34 36.6968 202.842 36.9095 202.529 37.2006C202.5 37.2279 202.472 37.2559 202.445 37.2848C202.152 37.5999 202.006 38.0147 202.006 38.5291C202.006 38.6182 202.01 38.7052 202.018 38.7903C202.02 38.8114 202.022 38.8323 202.024 38.8532C202.026 38.8693 202.028 38.8854 202.031 38.9015C202.031 38.905 202.032 38.9085 202.032 38.912C202.034 38.9258 202.036 38.9397 202.038 38.9534C202.053 39.0428 202.071 39.1298 202.095 39.2146C202.169 39.48 202.288 39.7228 202.453 39.943C202.533 40.0494 202.624 40.1506 202.725 40.2465C203.024 40.5042 203.362 40.6851 203.738 40.7891C203.993 40.8594 204.265 40.8945 204.555 40.8945C204.745 40.8945 204.928 40.8837 205.106 40.8621C205.117 40.8607 205.129 40.8593 205.14 40.8578C205.533 40.8065 205.894 40.7017 206.225 40.5432C206.329 40.4933 206.43 40.4381 206.528 40.3776C206.705 40.2679 206.873 40.1407 207.03 39.9961C207.089 39.9416 207.147 39.8847 207.203 39.8253C207.377 39.6416 207.53 39.4452 207.661 39.2359C207.756 39.0827 207.84 38.9226 207.913 38.7556C207.966 38.6329 208.013 38.5065 208.053 38.3764ZM204.123 36.957C204.124 36.9562 204.125 36.9554 204.125 36.9546ZM229.543 43.3999C229.885 43.6306 230.314 43.746 230.83 43.746C231.462 43.746 231.963 43.5732 232.334 43.2275C232.704 42.8819 232.89 42.4067 232.89 41.8018V34.576C232.89 34.1254 232.936 33.708 233.03 33.324C233.191 32.6586 233.493 32.093 233.936 31.6274C234.122 31.4368 234.324 31.271 234.541 31.1298C235.048 30.8012 235.637 30.6067 236.311 30.5462C236.463 30.5325 236.619 30.5257 236.779 30.5257C237.284 30.5257 237.72 30.5969 238.087 30.7395C238.448 30.8799 238.742 31.0894 238.969 31.3681C239.045 31.4565 239.114 31.5532 239.178 31.6582C239.493 32.1786 239.662 32.9028 239.686 33.8308C239.687 33.9051 239.688 33.9807 239.688 34.0576V41.8018C239.688 42.4067 239.874 42.8819 240.244 43.2275C240.614 43.5732 241.116 43.746 241.748 43.746C242.379 43.746 242.87 43.5732 243.218 43.2275C243.589 42.8819 243.774 42.4067 243.774 41.8018V33.8308C243.774 31.649 243.306 30.018 242.369 28.9379C242.319 28.8803 242.267 28.8243 242.214 28.7697C242.192 28.7469 242.17 28.7244 242.148 28.7021C241.213 27.7792 239.859 27.3178 238.087 27.3178C237.632 27.3178 237.197 27.3546 236.779 27.4281C236.773 27.4292 236.767 27.4304 236.76 27.4315C236.124 27.5455 235.531 27.7452 234.981 28.0307C234.395 28.3352 233.885 28.7241 233.45 29.1972C233.301 29.3596 233.161 29.532 233.03 29.7143C233 29.756 232.97 29.7982 232.941 29.8409C232.89 29.9163 232.84 29.9934 232.792 30.072V29.1972C232.792 28.6571 232.606 28.2251 232.236 27.9011C232.177 27.843 232.116 27.7899 232.051 27.7416C231.778 27.5378 231.45 27.4208 231.068 27.3905C231.001 27.3853 230.933 27.3826 230.863 27.3826C230.231 27.3826 229.73 27.5554 229.359 27.9011C229.339 27.9206 229.318 27.9404 229.298 27.9606C229.024 28.2415 228.864 28.5888 228.818 29.0027C228.811 29.066 228.806 29.1308 228.805 29.1972C228.804 29.2186 228.804 29.2402 228.804 29.262V41.8018C228.804 42.4067 228.978 42.8819 229.327 43.2275C229.395 43.2908 229.467 43.3482 229.543 43.3999Z" fill="#E9F5E9"/>
<path d="M83.3075 20.5303C83.9176 20.5303 84.4079 20.7247 84.7784 21.1135C85.1488 21.4807 85.3341 21.9776 85.3341 22.604V41.7864C85.3341 42.3913 85.1597 42.8665 84.8111 43.2122C84.4624 43.5578 84.0048 43.7306 83.4382 43.7306C82.8717 43.7306 82.425 43.5578 82.0981 43.2122C81.7712 42.8665 81.6078 42.3913 81.6078 41.7864V28.4365L76.0511 38.8702C75.7897 39.3454 75.5064 39.7019 75.2013 39.9395C74.8962 40.1555 74.5367 40.2635 74.1227 40.2635C73.7086 40.2635 73.3491 40.1555 73.044 39.9395C72.7389 39.7235 72.4557 39.367 72.1942 38.8702L66.6048 28.5985V41.7864C66.6048 42.3697 66.4305 42.8449 66.0818 43.2122C65.755 43.5578 65.3082 43.7306 64.7417 43.7306C64.1751 43.7306 63.7284 43.5578 63.4015 43.2122C63.0747 42.8665 62.9113 42.3913 62.9113 41.7864V22.604C62.9113 21.9776 63.0856 21.4807 63.4342 21.1135C63.8047 20.7247 64.295 20.5303 64.9051 20.5303C65.755 20.5303 66.4196 20.9947 66.899 21.9236L74.1553 35.6299L81.379 21.9236C81.8584 20.9947 82.5012 20.5303 83.3075 20.5303Z" fill="#48A145"/>
<path d="M102.619 39.1942C102.99 39.1942 103.284 39.3346 103.502 39.6155C103.741 39.8963 103.861 40.2743 103.861 40.7496C103.861 41.4192 103.458 41.9809 102.652 42.4345C101.911 42.8449 101.072 43.1798 100.135 43.439C99.1981 43.6766 98.3046 43.7954 97.4548 43.7954C94.8835 43.7954 92.846 43.0609 91.3425 41.592C89.8389 40.1231 89.0871 38.1141 89.0871 35.5651C89.0871 33.945 89.414 32.5085 90.0677 31.2556C90.7214 30.0027 91.6366 29.0306 92.8133 28.3393C94.0118 27.6481 95.3629 27.3024 96.8664 27.3024C98.3046 27.3024 99.5576 27.6157 100.625 28.2421C101.693 28.8686 102.521 29.7542 103.11 30.8991C103.698 32.044 103.992 33.3941 103.992 34.9495C103.992 35.8783 103.578 36.3428 102.75 36.3428H93.1075C93.2383 37.8333 93.6632 38.935 94.3823 39.6479C95.1014 40.3391 96.1473 40.6847 97.5202 40.6847C98.2175 40.6847 98.8276 40.5983 99.3506 40.4255C99.8954 40.2527 100.506 40.0151 101.181 39.7127C101.835 39.367 102.314 39.1942 102.619 39.1942ZM96.9645 30.1539C95.8532 30.1539 94.9597 30.4995 94.2842 31.1908C93.6305 31.882 93.2383 32.8757 93.1075 34.1718H100.495C100.451 32.8541 100.124 31.8604 99.514 31.1908C98.9039 30.4995 98.054 30.1539 96.9645 30.1539Z" fill="#48A145"/>
<path d="M116.258 27.3672C116.824 27.324 117.271 27.4428 117.598 27.7237C117.925 28.0045 118.088 28.4257 118.088 28.9874C118.088 29.5706 117.946 30.0027 117.663 30.2835C117.38 30.5643 116.868 30.7479 116.127 30.8343L115.146 30.9315C113.861 31.0611 112.913 31.4932 112.303 32.2276C111.714 32.9621 111.42 33.8802 111.42 34.9819V41.7864C111.42 42.4129 111.224 42.8989 110.832 43.2446C110.439 43.5686 109.949 43.7306 109.361 43.7306C108.772 43.7306 108.282 43.5686 107.89 43.2446C107.519 42.8989 107.334 42.4129 107.334 41.7864V29.2466C107.334 28.6417 107.519 28.1773 107.89 27.8533C108.282 27.5292 108.762 27.3672 109.328 27.3672C109.895 27.3672 110.352 27.5292 110.701 27.8533C111.05 28.1557 111.224 28.5985 111.224 29.1818V30.4779C111.638 29.5274 112.248 28.793 113.054 28.2745C113.882 27.7561 114.798 27.4644 115.8 27.3996L116.258 27.3672Z" fill="#48A145"/>
<path d="M126.713 27.3024C128.935 27.3024 130.58 27.8533 131.648 28.955C132.738 30.0351 133.283 31.6876 133.283 33.9126V41.8188C133.283 42.4021 133.108 42.8665 132.76 43.2122C132.411 43.5362 131.931 43.6982 131.321 43.6982C130.755 43.6982 130.286 43.5254 129.916 43.1798C129.567 42.8341 129.393 42.3805 129.393 41.8188V41.106C129.022 41.9485 128.434 42.6073 127.628 43.0825C126.843 43.5578 125.928 43.7954 124.882 43.7954C123.814 43.7954 122.845 43.5794 121.973 43.1474C121.101 42.7153 120.415 42.1213 119.914 41.3652C119.413 40.6091 119.162 39.7667 119.162 38.8378C119.162 37.6713 119.456 36.7532 120.045 36.0836C120.655 35.4139 121.635 34.9279 122.986 34.6254C124.337 34.323 126.201 34.1718 128.576 34.1718H129.393V33.4265C129.393 32.3681 129.164 31.6012 128.706 31.1259C128.249 30.6291 127.508 30.3807 126.484 30.3807C125.852 30.3807 125.209 30.4779 124.555 30.6723C123.902 30.8451 123.128 31.1043 122.235 31.45C121.668 31.7308 121.254 31.8712 120.992 31.8712C120.6 31.8712 120.273 31.7308 120.012 31.45C119.772 31.1692 119.652 30.8019 119.652 30.3483C119.652 29.981 119.74 29.6678 119.914 29.4086C120.11 29.1278 120.426 28.8686 120.862 28.6309C121.624 28.2205 122.529 27.8965 123.575 27.6589C124.642 27.4212 125.688 27.3024 126.713 27.3024ZM125.699 40.8792C126.789 40.8792 127.671 40.5227 128.347 39.8099C129.044 39.0754 129.393 38.1357 129.393 36.9908V36.3104H128.805C127.345 36.3104 126.211 36.3752 125.405 36.5048C124.599 36.6344 124.021 36.8612 123.673 37.1853C123.324 37.5093 123.15 37.9521 123.15 38.5138C123.15 39.205 123.389 39.7775 123.869 40.2311C124.37 40.6631 124.98 40.8792 125.699 40.8792Z" fill="#48A145"/>
<path d="M151.654 40.3931C152.089 40.8036 152.307 41.268 152.307 41.7864C152.307 42.2833 152.122 42.7261 151.752 43.115C151.403 43.5038 150.989 43.6982 150.509 43.6982C150.03 43.6982 149.583 43.5038 149.169 43.115L141.521 36.2456V41.7864C141.521 42.4129 141.325 42.8881 140.932 43.2122C140.54 43.5362 140.05 43.6982 139.462 43.6982C138.873 43.6982 138.383 43.5362 137.991 43.2122C137.62 42.8881 137.435 42.4129 137.435 41.7864V22.442C137.435 21.8156 137.62 21.3403 137.991 21.0163C138.383 20.6923 138.873 20.5303 139.462 20.5303C140.05 20.5303 140.54 20.6923 140.932 21.0163C141.325 21.3403 141.521 21.8156 141.521 22.442V34.6254L148.516 27.9829C148.908 27.594 149.355 27.3996 149.856 27.3996C150.357 27.3996 150.793 27.5832 151.163 27.9505C151.534 28.3177 151.719 28.7497 151.719 29.2466C151.719 29.7434 151.512 30.1971 151.098 30.6075L145.966 35.3383L151.654 40.3931Z" fill="#48A145"/>
<path d="M156.986 43.7306C156.397 43.7306 155.907 43.5686 155.515 43.2446C155.144 42.8989 154.959 42.4129 154.959 41.7864V29.279C154.959 28.6525 155.144 28.1773 155.515 27.8533C155.907 27.5292 156.397 27.3672 156.986 27.3672C157.574 27.3672 158.064 27.5292 158.457 27.8533C158.849 28.1773 159.045 28.6525 159.045 29.279V41.7864C159.045 42.4129 158.849 42.8989 158.457 43.2446C158.064 43.5686 157.574 43.7306 156.986 43.7306ZM156.986 24.4834C156.245 24.4834 155.656 24.289 155.221 23.9001C154.785 23.4897 154.567 22.9605 154.567 22.3124C154.567 21.6644 154.785 21.1459 155.221 20.7571C155.656 20.3682 156.245 20.1738 156.986 20.1738C157.705 20.1738 158.282 20.3682 158.718 20.7571C159.176 21.1459 159.405 21.6644 159.405 22.3124C159.405 22.9605 159.187 23.4897 158.751 23.9001C158.315 24.289 157.727 24.4834 156.986 24.4834Z" fill="#48A145"/>
<path d="M165.612 43.5362C164.98 43.5362 164.49 43.3634 164.141 43.0177C163.792 42.6721 163.618 42.1969 163.618 41.592V22.604C163.618 21.9776 163.803 21.4807 164.174 21.1135C164.566 20.7247 165.078 20.5303 165.71 20.5303C166.364 20.5303 166.876 20.7247 167.246 21.1135C167.638 21.4807 167.834 21.9776 167.834 22.604V40.1015H177.019C178.327 40.1015 178.981 40.6739 178.981 41.8188C178.981 42.9637 178.327 43.5362 177.019 43.5362H165.612Z" fill="#48A145"/>
<path d="M193.943 39.1942C194.313 39.1942 194.608 39.3346 194.825 39.6155C195.065 39.8963 195.185 40.2743 195.185 40.7496C195.185 41.4192 194.782 41.9809 193.976 42.4345C193.235 42.8449 192.396 43.1798 191.459 43.439C190.522 43.6766 189.628 43.7954 188.778 43.7954C186.207 43.7954 184.17 43.0609 182.666 41.592C181.163 40.1231 180.411 38.1141 180.411 35.5651C180.411 33.945 180.738 32.5085 181.391 31.2556C182.045 30.0027 182.96 29.0306 184.137 28.3393C185.336 27.6481 186.687 27.3024 188.19 27.3024C189.628 27.3024 190.881 27.6157 191.949 28.2421C193.017 28.8686 193.845 29.7542 194.433 30.8991C195.022 32.044 195.316 33.3941 195.316 34.9495C195.316 35.8783 194.902 36.3428 194.074 36.3428H184.431C184.562 37.8333 184.987 38.935 185.706 39.6479C186.425 40.3391 187.471 40.6847 188.844 40.6847C189.541 40.6847 190.151 40.5983 190.674 40.4255C191.219 40.2527 191.829 40.0151 192.505 39.7127C193.158 39.367 193.638 39.1942 193.943 39.1942ZM188.288 30.1539C187.177 30.1539 186.283 30.4995 185.608 31.1908C184.954 31.882 184.562 32.8757 184.431 34.1718H191.818C191.775 32.8541 191.448 31.8604 190.838 31.1908C190.228 30.4995 189.378 30.1539 188.288 30.1539Z" fill="#48A145"/>
<path d="M205.587 27.3024C207.81 27.3024 209.455 27.8533 210.523 28.955C211.613 30.0351 212.157 31.6876 212.157 33.9126V41.8188C212.157 42.4021 211.983 42.8665 211.634 43.2122C211.286 43.5362 210.806 43.6982 210.196 43.6982C209.63 43.6982 209.161 43.5254 208.791 43.1798C208.442 42.8341 208.268 42.3805 208.268 41.8188V41.106C207.897 41.9485 207.309 42.6073 206.503 43.0825C205.718 43.5578 204.803 43.7954 203.757 43.7954C202.689 43.7954 201.72 43.5794 200.848 43.1474C199.976 42.7153 199.29 42.1213 198.789 41.3652C198.287 40.6091 198.037 39.7667 198.037 38.8378C198.037 37.6713 198.331 36.7532 198.919 36.0836C199.53 35.4139 200.51 34.9279 201.861 34.6254C203.212 34.323 205.075 34.1718 207.451 34.1718H208.268V33.4265C208.268 32.3681 208.039 31.6012 207.581 31.1259C207.124 30.6291 206.383 30.3807 205.359 30.3807C204.727 30.3807 204.084 30.4779 203.43 30.6723C202.776 30.8451 202.003 31.1043 201.109 31.45C200.543 31.7308 200.129 31.8712 199.867 31.8712C199.475 31.8712 199.148 31.7308 198.887 31.45C198.647 31.1692 198.527 30.8019 198.527 30.3483C198.527 29.981 198.614 29.6678 198.789 29.4086C198.985 29.1278 199.301 28.8686 199.737 28.6309C200.499 28.2205 201.404 27.8965 202.45 27.6589C203.517 27.4212 204.563 27.3024 205.587 27.3024ZM204.574 40.8792C205.664 40.8792 206.546 40.5227 207.222 39.8099C207.919 39.0754 208.268 38.1357 208.268 36.9908V36.3104H207.679C206.219 36.3104 205.086 36.3752 204.28 36.5048C203.474 36.6344 202.896 36.8612 202.548 37.1853C202.199 37.5093 202.025 37.9521 202.025 38.5138C202.025 39.205 202.264 39.7775 202.744 40.2311C203.245 40.6631 203.855 40.8792 204.574 40.8792Z" fill="#48A145"/>
<path d="M225.233 27.3672C225.8 27.324 226.246 27.4428 226.573 27.7237C226.9 28.0045 227.064 28.4257 227.064 28.9874C227.064 29.5706 226.922 30.0027 226.639 30.2835C226.355 30.5643 225.843 30.7479 225.102 30.8343L224.122 30.9315C222.836 31.0611 221.888 31.4932 221.278 32.2276C220.69 32.9621 220.396 33.8802 220.396 34.9819V41.7864C220.396 42.4129 220.199 42.8989 219.807 43.2446C219.415 43.5686 218.925 43.7306 218.336 43.7306C217.748 43.7306 217.258 43.5686 216.865 43.2446C216.495 42.8989 216.31 42.4129 216.31 41.7864V29.2466C216.31 28.6417 216.495 28.1773 216.865 27.8533C217.258 27.5292 217.737 27.3672 218.304 27.3672C218.87 27.3672 219.328 27.5292 219.676 27.8533C220.025 28.1557 220.199 28.5985 220.199 29.1818V30.4779C220.613 29.5274 221.224 28.793 222.03 28.2745C222.858 27.7561 223.773 27.4644 224.776 27.3996L225.233 27.3672Z" fill="#48A145"/>
<path d="M238.105 27.3024C240.023 27.3024 241.45 27.8425 242.387 28.9226C243.324 30.0027 243.793 31.6336 243.793 33.8154V41.7864C243.793 42.3913 243.608 42.8665 243.237 43.2122C242.889 43.5578 242.398 43.7306 241.766 43.7306C241.134 43.7306 240.633 43.5578 240.263 43.2122C239.892 42.8665 239.707 42.3913 239.707 41.7864V34.0422C239.707 32.8109 239.467 31.9144 238.988 31.3528C238.53 30.7911 237.8 30.5103 236.798 30.5103C235.621 30.5103 234.673 30.8775 233.954 31.612C233.257 32.3464 232.908 33.3293 232.908 34.5606V41.7864C232.908 42.3913 232.723 42.8665 232.353 43.2122C231.982 43.5578 231.481 43.7306 230.849 43.7306C230.217 43.7306 229.716 43.5578 229.346 43.2122C228.997 42.8665 228.823 42.3913 228.823 41.7864V29.2466C228.823 28.6849 229.008 28.2313 229.378 27.8857C229.749 27.54 230.25 27.3672 230.882 27.3672C231.448 27.3672 231.906 27.54 232.255 27.8857C232.625 28.2097 232.81 28.6417 232.81 29.1818V30.0567C233.355 29.171 234.085 28.4905 235 28.0153C235.915 27.54 236.951 27.3024 238.105 27.3024Z" fill="#48A145"/>
<ellipse cx="156.897" cy="22.2578" rx="2.46444" ry="2.31448" fill="#D55F31"/>
</g>
<defs>
<clipPath id="clip0_4034_64">
<rect width="161.333" height="64" fill="white"/>
</clipPath>
</defs>
</svg>
